# xmcd CD database file
#
# Track frame offsets:
#	183
#	11868
#	23495
#	38893
#	52083
#	65708
#	81528
#	97638
#	116288
#	134933
#	146958
#	165865
#	182023
#	194713
#	212378
#	224300
#	236570
#	245918
#
# Disc length: 3409 seconds
#
# Revision: 2
# Processed by: cddbd v1.5.2PL0 Copyright (c) Steve Scherf et al.
# Submitted via: CDex 1.70beta2
#
DISCID=0d0d4f12
DTITLE=Various Artist - Country Music's Golden Hitparade [CD 5 of 5)
DYEAR=1989
DGENRE=Country
TTITLE0=Dolly Parton - 9 to 5
TTITLE1=Sandy Posey - The Single Girl
TTITLE2=Helen Reddy - Leave Me Alone (Ruby Red Dress)
TTITLE3=Dr. Hook and the Medicine Show - The Cover of 'The Rolling Stone'
TTITLE4=Loretta Lynn - Coal Miner's Daughter
TTITLE5=Kris Kristofferson - Why Me
TTITLE6=Willie Nelson - Always on My Mind
TTITLE7=Don Williams - I Believe in You
TTITLE8=Glen Campbell - My Way
TTITLE9=Dolly Parton - Jolene
TTITLE10=Merle Haggard - Okie from Muskogee
TTITLE11=Kenny Rogers - Lucille
TTITLE12=Elvis Presley - In the Ghetto
TTITLE13=Willie Nelson - Stardust
TTITLE14=Charley Pride - Too Hard to Say I'm Sorry
TTITLE15=Glen Campbell - Galveston
TTITLE16=The Everly Brothers - Wake Up, Little Susie
TTITLE17=Eddy Arnold - What's He Doing in My World
EXTD=YEAR: 1989
EXTT0=
EXTT1=
EXTT2=
EXTT3=
EXTT4=
EXTT5=
EXTT6=
EXTT7=
EXTT8=
EXTT9=
EXTT10=
EXTT11=
EXTT12=
EXTT13=
EXTT14=
EXTT15=
EXTT16=
EXTT17=
PLAYORDER=
